<svg width="1363" height="301" viewBox="0 0 1363 301" fill="none" xmlns="http://www.w3.org/2000/svg">
<rect width="1363" height="301" rx="15" fill="#F0F0F0"/>
<path d="M0 15C0 6.71573 6.71573 0 15 0H37V301H15C6.71573 301 0 294.284 0 286V15Z" fill="#FF5E19"/>
<path d="M103.172 104.898L109.563 117.896L115.955 104.898H126.697L115.794 124.288L126.993 144H116.143L109.563 130.76L102.984 144H92.1074L103.333 124.288L92.4028 104.898H103.172ZM143.16 123.644V130.653H127.02V123.644H143.16ZM155.352 104.898H163.033L171.761 132.103L180.489 104.898H188.169L174.876 144H168.646L155.352 104.898ZM150.679 104.898H158.628L160.105 134.869V144H150.679V104.898ZM184.893 104.898H192.869V144H183.416V134.869L184.893 104.898ZM197.354 129.767V129.203C197.354 127.072 197.658 125.112 198.267 123.321C198.876 121.513 199.771 119.946 200.953 118.622C202.134 117.297 203.593 116.267 205.33 115.533C207.067 114.781 209.072 114.405 211.346 114.405C213.637 114.405 215.652 114.781 217.388 115.533C219.143 116.267 220.611 117.297 221.792 118.622C222.974 119.946 223.869 121.513 224.478 123.321C225.087 125.112 225.391 127.072 225.391 129.203V129.767C225.391 131.879 225.087 133.84 224.478 135.648C223.869 137.438 222.974 139.005 221.792 140.348C220.611 141.673 219.152 142.702 217.415 143.436C215.678 144.17 213.673 144.537 211.399 144.537C209.126 144.537 207.111 144.17 205.357 143.436C203.602 142.702 202.134 141.673 200.953 140.348C199.771 139.005 198.876 137.438 198.267 135.648C197.658 133.84 197.354 131.879 197.354 129.767ZM206.404 129.203V129.767C206.404 130.859 206.485 131.879 206.646 132.828C206.807 133.777 207.076 134.61 207.452 135.326C207.828 136.024 208.338 136.57 208.982 136.964C209.627 137.358 210.433 137.555 211.399 137.555C212.348 137.555 213.136 137.358 213.763 136.964C214.407 136.57 214.917 136.024 215.293 135.326C215.669 134.61 215.938 133.777 216.099 132.828C216.26 131.879 216.341 130.859 216.341 129.767V129.203C216.341 128.146 216.26 127.153 216.099 126.222C215.938 125.273 215.669 124.44 215.293 123.724C214.917 122.99 214.407 122.417 213.763 122.005C213.118 121.594 212.312 121.388 211.346 121.388C210.397 121.388 209.6 121.594 208.956 122.005C208.329 122.417 207.828 122.99 207.452 123.724C207.076 124.44 206.807 125.273 206.646 126.222C206.485 127.153 206.404 128.146 206.404 129.203ZM239.463 137.796L245.184 114.942H254.717L245.21 144H239.571L239.463 137.796ZM236.08 114.942L241.719 137.796L241.666 144H235.999L226.519 114.942H236.08ZM271.099 144.537C268.736 144.537 266.623 144.17 264.761 143.436C262.899 142.684 261.324 141.655 260.035 140.348C258.764 139.041 257.788 137.537 257.107 135.836C256.445 134.135 256.114 132.336 256.114 130.438V129.417C256.114 127.287 256.409 125.318 257 123.509C257.591 121.683 258.468 120.09 259.632 118.729C260.796 117.368 262.255 116.312 264.009 115.56C265.764 114.79 267.805 114.405 270.132 114.405C272.191 114.405 274.035 114.736 275.665 115.399C277.294 116.061 278.672 117.01 279.8 118.246C280.946 119.481 281.814 120.976 282.405 122.73C283.014 124.485 283.318 126.454 283.318 128.639V132.318H259.578V126.651H274.483V125.953C274.501 124.986 274.331 124.163 273.973 123.482C273.632 122.802 273.131 122.283 272.469 121.925C271.806 121.567 271.001 121.388 270.052 121.388C269.067 121.388 268.252 121.603 267.608 122.032C266.981 122.462 266.489 123.053 266.131 123.805C265.791 124.539 265.549 125.389 265.406 126.356C265.263 127.323 265.191 128.343 265.191 129.417V130.438C265.191 131.512 265.334 132.488 265.621 133.365C265.925 134.243 266.355 134.994 266.91 135.621C267.483 136.23 268.163 136.704 268.951 137.044C269.756 137.385 270.669 137.555 271.69 137.555C272.925 137.555 274.143 137.322 275.342 136.856C276.542 136.391 277.571 135.621 278.431 134.547L282.54 139.435C281.949 140.276 281.107 141.091 280.015 141.878C278.941 142.666 277.652 143.311 276.148 143.812C274.644 144.295 272.961 144.537 271.099 144.537Z" fill="black"/>
<path d="M104.288 72.3608V55.1172H109.397V72.3608C109.397 74.0243 109.033 75.4541 108.304 76.6504C107.575 77.8353 106.578 78.7467 105.313 79.3848C104.06 80.0228 102.647 80.3418 101.075 80.3418C99.4455 80.3418 98.0042 80.0684 96.751 79.5215C95.4977 78.9746 94.5122 78.1372 93.7944 77.0093C93.0767 75.87 92.7178 74.4287 92.7178 72.6855H97.8618C97.8618 73.597 97.9871 74.3205 98.2378 74.856C98.4998 75.3914 98.8701 75.7731 99.3486 76.001C99.8271 76.2288 100.403 76.3428 101.075 76.3428C101.724 76.3428 102.288 76.189 102.767 75.8813C103.245 75.5737 103.615 75.1237 103.877 74.5312C104.151 73.9388 104.288 73.2153 104.288 72.3608ZM123.445 75.8301V67.5928C123.445 67.0003 123.348 66.4933 123.155 66.0718C122.961 65.6388 122.659 65.3027 122.249 65.0635C121.85 64.8242 121.332 64.7046 120.694 64.7046C120.147 64.7046 119.674 64.8014 119.275 64.9951C118.877 65.1774 118.569 65.4451 118.353 65.7983C118.136 66.1401 118.028 66.5446 118.028 67.0117H113.106C113.106 66.2256 113.288 65.4793 113.653 64.7729C114.017 64.0666 114.547 63.4456 115.242 62.9102C115.937 62.3633 116.763 61.936 117.72 61.6284C118.689 61.3208 119.771 61.167 120.967 61.167C122.403 61.167 123.679 61.4062 124.795 61.8848C125.912 62.3633 126.789 63.0811 127.427 64.0381C128.077 64.9951 128.401 66.1914 128.401 67.627V75.5396C128.401 76.5535 128.464 77.3853 128.589 78.0347C128.715 78.6727 128.897 79.231 129.136 79.7095V80H124.163C123.924 79.4987 123.742 78.8721 123.616 78.1201C123.502 77.3568 123.445 76.5934 123.445 75.8301ZM124.095 68.7378L124.129 71.5234H121.377C120.728 71.5234 120.164 71.5975 119.686 71.7456C119.207 71.8937 118.814 72.1045 118.506 72.3779C118.199 72.64 117.971 72.9476 117.823 73.3008C117.686 73.654 117.618 74.0413 117.618 74.4629C117.618 74.8844 117.715 75.2661 117.908 75.6079C118.102 75.9383 118.381 76.2004 118.746 76.394C119.11 76.5763 119.537 76.6675 120.027 76.6675C120.768 76.6675 121.412 76.5194 121.958 76.2231C122.505 75.9269 122.927 75.5623 123.223 75.1294C123.531 74.6965 123.69 74.2863 123.702 73.8989L125 75.9839C124.818 76.451 124.568 76.9352 124.249 77.4365C123.941 77.9378 123.548 78.4106 123.069 78.855C122.591 79.2879 122.015 79.6468 121.343 79.9316C120.671 80.2051 119.874 80.3418 118.951 80.3418C117.777 80.3418 116.712 80.1082 115.755 79.6411C114.809 79.1626 114.057 78.5075 113.499 77.6758C112.952 76.8327 112.679 75.8757 112.679 74.8047C112.679 73.8363 112.861 72.9761 113.226 72.2241C113.59 71.4722 114.126 70.8398 114.832 70.3271C115.55 69.8031 116.444 69.41 117.515 69.1479C118.586 68.8745 119.828 68.7378 121.241 68.7378H124.095ZM143.116 75.9668V53.75H148.072V80H143.611L143.116 75.9668ZM131.426 70.9766V70.6177C131.426 69.2049 131.586 67.9232 131.905 66.7725C132.224 65.6104 132.691 64.6134 133.306 63.7817C133.921 62.95 134.679 62.3063 135.579 61.8506C136.479 61.3949 137.505 61.167 138.655 61.167C139.738 61.167 140.683 61.3949 141.492 61.8506C142.312 62.3063 143.007 62.9557 143.577 63.7988C144.158 64.6305 144.625 65.616 144.979 66.7554C145.332 67.8833 145.588 69.1195 145.748 70.4639V71.25C145.588 72.5374 145.332 73.7337 144.979 74.8389C144.625 75.944 144.158 76.9124 143.577 77.7441C143.007 78.5645 142.312 79.2025 141.492 79.6582C140.672 80.1139 139.715 80.3418 138.621 80.3418C137.47 80.3418 136.445 80.1082 135.545 79.6411C134.656 79.174 133.904 78.5189 133.289 77.6758C132.685 76.8327 132.224 75.8415 131.905 74.7021C131.586 73.5628 131.426 72.321 131.426 70.9766ZM136.348 70.6177V70.9766C136.348 71.7399 136.405 72.452 136.519 73.1128C136.644 73.7736 136.844 74.3604 137.117 74.873C137.402 75.3743 137.767 75.7674 138.211 76.0522C138.667 76.3257 139.219 76.4624 139.869 76.4624C140.712 76.4624 141.407 76.2744 141.954 75.8984C142.5 75.5111 142.916 74.9813 143.201 74.3091C143.497 73.6369 143.668 72.8621 143.714 71.9849V69.7461C143.68 69.0283 143.577 68.3846 143.406 67.8149C143.247 67.2339 143.007 66.7383 142.688 66.3281C142.381 65.918 141.993 65.599 141.526 65.3711C141.071 65.1432 140.529 65.0293 139.903 65.0293C139.265 65.0293 138.718 65.1774 138.262 65.4736C137.806 65.7585 137.436 66.1515 137.151 66.6528C136.878 67.1541 136.673 67.7466 136.536 68.4302C136.411 69.1024 136.348 69.8315 136.348 70.6177ZM171.058 59.3726L164.29 80H158.838L168.084 55.1172H171.553L171.058 59.3726ZM176.68 80L169.896 59.3726L169.349 55.1172H172.852L182.149 80H176.68ZM176.373 70.7373V74.7534H163.23V70.7373H176.373ZM188.523 65.3369V80H183.584V61.5088H188.216L188.523 65.3369ZM187.84 70.105H186.473C186.473 68.8175 186.626 67.6326 186.934 66.5503C187.253 65.4565 187.715 64.5109 188.318 63.7134C188.934 62.9045 189.691 62.2778 190.591 61.8335C191.491 61.3892 192.534 61.167 193.719 61.167C194.539 61.167 195.291 61.2923 195.975 61.543C196.658 61.7822 197.245 62.1639 197.735 62.688C198.236 63.2007 198.624 63.8729 198.897 64.7046C199.17 65.5249 199.307 66.5104 199.307 67.6611V80H194.385V68.208C194.385 67.3649 194.271 66.7155 194.043 66.2598C193.816 65.804 193.491 65.485 193.069 65.3027C192.659 65.1204 192.164 65.0293 191.583 65.0293C190.944 65.0293 190.386 65.1603 189.908 65.4224C189.441 65.6844 189.053 66.049 188.746 66.5161C188.438 66.9718 188.21 67.5073 188.062 68.1226C187.914 68.7378 187.84 69.3986 187.84 70.105ZM198.846 69.541L197.085 69.7632C197.085 68.5555 197.234 67.4333 197.53 66.3965C197.837 65.3597 198.287 64.4482 198.88 63.6621C199.484 62.876 200.23 62.2664 201.119 61.8335C202.007 61.3892 203.033 61.167 204.195 61.167C205.083 61.167 205.892 61.298 206.622 61.5601C207.351 61.8107 207.972 62.2152 208.484 62.7734C209.008 63.3203 209.407 64.0381 209.681 64.9268C209.965 65.8154 210.108 66.9035 210.108 68.1909V80H205.169V68.1909C205.169 67.3364 205.055 66.687 204.827 66.2427C204.611 65.7869 204.292 65.4736 203.87 65.3027C203.46 65.1204 202.97 65.0293 202.4 65.0293C201.808 65.0293 201.29 65.1489 200.845 65.3882C200.401 65.616 200.031 65.9351 199.734 66.3452C199.438 66.7554 199.216 67.2339 199.068 67.7808C198.92 68.3162 198.846 68.903 198.846 69.541ZM219.114 61.5088V80H214.175V61.5088H219.114ZM213.868 56.6895C213.868 55.9717 214.118 55.3792 214.62 54.9121C215.121 54.445 215.793 54.2114 216.636 54.2114C217.468 54.2114 218.134 54.445 218.636 54.9121C219.148 55.3792 219.405 55.9717 219.405 56.6895C219.405 57.4072 219.148 57.9997 218.636 58.4668C218.134 58.9339 217.468 59.1675 216.636 59.1675C215.793 59.1675 215.121 58.9339 214.62 58.4668C214.118 57.9997 213.868 57.4072 213.868 56.6895ZM228.001 65.4565V80H223.079V61.5088H227.693L228.001 65.4565ZM227.283 70.105H225.95C225.95 68.7378 226.127 67.5073 226.48 66.4136C226.833 65.3084 227.329 64.3685 227.967 63.5938C228.605 62.8076 229.362 62.2095 230.24 61.7993C231.128 61.3778 232.12 61.167 233.213 61.167C234.079 61.167 234.871 61.2923 235.589 61.543C236.307 61.7936 236.922 62.1924 237.435 62.7393C237.959 63.2861 238.357 64.0096 238.631 64.9097C238.916 65.8097 239.058 66.9092 239.058 68.208V80H234.102V68.1909C234.102 67.3706 233.988 66.7326 233.76 66.2769C233.532 65.8211 233.196 65.5021 232.752 65.3198C232.319 65.1261 231.784 65.0293 231.146 65.0293C230.485 65.0293 229.909 65.1603 229.419 65.4224C228.941 65.6844 228.542 66.049 228.223 66.5161C227.916 66.9718 227.682 67.5073 227.522 68.1226C227.363 68.7378 227.283 69.3986 227.283 70.105ZM251.312 80.3418C249.876 80.3418 248.589 80.1139 247.449 79.6582C246.31 79.1911 245.341 78.5474 244.544 77.7271C243.758 76.9067 243.154 75.9554 242.732 74.873C242.311 73.7793 242.1 72.6172 242.1 71.3867V70.7031C242.1 69.3018 242.299 68.02 242.698 66.8579C243.097 65.6958 243.667 64.6875 244.407 63.833C245.159 62.9785 246.071 62.3234 247.142 61.8677C248.213 61.4006 249.42 61.167 250.765 61.167C252.075 61.167 253.237 61.3835 254.251 61.8164C255.265 62.2493 256.114 62.8646 256.797 63.6621C257.492 64.4596 258.016 65.4167 258.37 66.5332C258.723 67.6383 258.899 68.8688 258.899 70.2246V72.2754H244.202V68.9941H254.063V68.6182C254.063 67.9346 253.938 67.325 253.687 66.7896C253.448 66.2427 253.083 65.8097 252.593 65.4907C252.103 65.1717 251.477 65.0122 250.713 65.0122C250.064 65.0122 249.506 65.1546 249.039 65.4395C248.571 65.7243 248.19 66.123 247.894 66.6357C247.609 67.1484 247.392 67.7523 247.244 68.4473C247.107 69.1309 247.039 69.8828 247.039 70.7031V71.3867C247.039 72.1273 247.142 72.8109 247.347 73.4375C247.563 74.0641 247.865 74.6053 248.252 75.061C248.651 75.5168 249.13 75.87 249.688 76.1206C250.258 76.3713 250.901 76.4966 251.619 76.4966C252.508 76.4966 253.334 76.3257 254.097 75.9839C254.872 75.6307 255.538 75.1009 256.097 74.3945L258.489 76.9922C258.102 77.5505 257.572 78.0859 256.9 78.5986C256.239 79.1113 255.442 79.5329 254.507 79.8633C253.573 80.1823 252.508 80.3418 251.312 80.3418Z" fill="#888888"/>
<rect x="92" y="181" width="1179" height="80" rx="13.3333" fill="#CCCCCC"/>
<rect x="107" y="196.333" width="150" height="49.3333" rx="4.66667" fill="#888888" stroke="#888888" stroke-width="4"/>
<path d="M124.008 213.167H129.977C131.144 213.167 132.158 213.34 133.019 213.687C133.88 214.035 134.543 214.549 135.008 215.229C135.481 215.91 135.717 216.75 135.717 217.75C135.717 218.618 135.581 219.344 135.31 219.927C135.04 220.51 134.661 220.993 134.175 221.375C133.696 221.75 133.137 222.059 132.498 222.302L131.3 222.979H126.29L126.269 220.156H129.977C130.442 220.156 130.828 220.073 131.133 219.906C131.439 219.74 131.668 219.503 131.821 219.198C131.981 218.885 132.06 218.514 132.06 218.083C132.06 217.646 131.981 217.271 131.821 216.958C131.661 216.646 131.425 216.406 131.113 216.24C130.807 216.073 130.428 215.99 129.977 215.99H127.665V228.333H124.008V213.167ZM132.31 228.333L128.956 221.625L132.831 221.604L136.227 228.177V228.333H132.31ZM143.217 228.542C142.3 228.542 141.481 228.399 140.758 228.115C140.036 227.823 139.425 227.424 138.925 226.917C138.432 226.41 138.053 225.826 137.79 225.167C137.533 224.507 137.404 223.809 137.404 223.073V222.677C137.404 221.851 137.519 221.087 137.748 220.385C137.977 219.677 138.317 219.059 138.769 218.531C139.22 218.003 139.786 217.594 140.467 217.302C141.147 217.003 141.939 216.854 142.842 216.854C143.64 216.854 144.356 216.983 144.988 217.24C145.619 217.497 146.154 217.865 146.592 218.344C147.036 218.823 147.373 219.403 147.602 220.083C147.838 220.764 147.956 221.528 147.956 222.375V223.802H138.748V221.604H144.529V221.333C144.536 220.958 144.47 220.639 144.331 220.375C144.199 220.111 144.005 219.91 143.748 219.771C143.491 219.632 143.178 219.562 142.81 219.562C142.428 219.562 142.113 219.646 141.863 219.812C141.619 219.979 141.428 220.208 141.29 220.5C141.158 220.785 141.064 221.115 141.008 221.49C140.953 221.865 140.925 222.26 140.925 222.677V223.073C140.925 223.49 140.981 223.868 141.092 224.208C141.21 224.549 141.376 224.84 141.592 225.083C141.814 225.319 142.078 225.503 142.383 225.635C142.696 225.767 143.05 225.833 143.446 225.833C143.925 225.833 144.397 225.743 144.863 225.562C145.328 225.382 145.727 225.083 146.06 224.667L147.654 226.562C147.425 226.889 147.099 227.205 146.675 227.51C146.258 227.816 145.758 228.066 145.175 228.26C144.592 228.448 143.939 228.542 143.217 228.542ZM155.238 225.5V220.854C155.238 220.535 155.192 220.26 155.102 220.031C155.012 219.802 154.869 219.625 154.675 219.5C154.481 219.368 154.22 219.302 153.894 219.302C153.63 219.302 153.404 219.347 153.217 219.437C153.029 219.528 152.887 219.663 152.79 219.844C152.692 220.024 152.644 220.253 152.644 220.531H149.133C149.133 220.01 149.248 219.528 149.477 219.083C149.713 218.632 150.047 218.24 150.477 217.906C150.915 217.573 151.435 217.316 152.04 217.135C152.651 216.948 153.331 216.854 154.081 216.854C154.977 216.854 155.776 217.003 156.477 217.302C157.185 217.601 157.744 218.049 158.154 218.646C158.564 219.236 158.769 219.979 158.769 220.875V225.49C158.769 226.226 158.81 226.785 158.894 227.167C158.977 227.542 159.095 227.872 159.248 228.156V228.333H155.727C155.56 227.986 155.435 227.562 155.352 227.062C155.276 226.556 155.238 226.035 155.238 225.5ZM155.665 221.448L155.685 223.323H154.133C153.807 223.323 153.529 223.368 153.3 223.458C153.078 223.549 152.897 223.674 152.758 223.833C152.626 223.986 152.529 224.16 152.467 224.354C152.411 224.549 152.383 224.753 152.383 224.969C152.383 225.177 152.432 225.365 152.529 225.531C152.633 225.691 152.772 225.816 152.946 225.906C153.119 225.997 153.314 226.042 153.529 226.042C153.918 226.042 154.248 225.969 154.519 225.823C154.797 225.67 155.008 225.486 155.154 225.271C155.3 225.056 155.373 224.854 155.373 224.667L156.144 226.104C156.005 226.382 155.845 226.663 155.665 226.948C155.491 227.233 155.272 227.497 155.008 227.74C154.751 227.976 154.435 228.17 154.06 228.323C153.685 228.469 153.231 228.542 152.696 228.542C152.001 228.542 151.363 228.399 150.779 228.115C150.203 227.83 149.741 227.434 149.394 226.927C149.047 226.413 148.873 225.823 148.873 225.156C148.873 224.573 148.977 224.052 149.185 223.594C149.401 223.135 149.724 222.747 150.154 222.427C150.585 222.108 151.133 221.865 151.8 221.698C152.467 221.531 153.251 221.448 154.154 221.448H155.665ZM165.477 225.833C165.803 225.833 166.081 225.774 166.31 225.656C166.547 225.531 166.724 225.358 166.842 225.135C166.967 224.906 167.026 224.632 167.019 224.312H170.321C170.328 225.16 170.119 225.903 169.696 226.542C169.279 227.174 168.71 227.667 167.988 228.021C167.272 228.368 166.463 228.542 165.56 228.542C164.678 228.542 163.908 228.399 163.248 228.115C162.588 227.823 162.036 227.42 161.592 226.906C161.154 226.385 160.824 225.778 160.602 225.083C160.387 224.389 160.279 223.635 160.279 222.823V222.583C160.279 221.771 160.387 221.017 160.602 220.323C160.824 219.622 161.154 219.014 161.592 218.5C162.036 217.979 162.585 217.576 163.238 217.292C163.897 217 164.665 216.854 165.54 216.854C166.477 216.854 167.303 217.031 168.019 217.385C168.741 217.74 169.307 218.253 169.717 218.927C170.126 219.601 170.328 220.417 170.321 221.375H167.019C167.026 221.035 166.974 220.729 166.863 220.458C166.751 220.187 166.578 219.972 166.342 219.812C166.113 219.646 165.817 219.562 165.456 219.562C165.095 219.562 164.803 219.642 164.581 219.802C164.359 219.962 164.189 220.184 164.071 220.469C163.96 220.747 163.883 221.066 163.842 221.427C163.807 221.788 163.79 222.174 163.79 222.583V222.823C163.79 223.24 163.807 223.632 163.842 224C163.883 224.361 163.963 224.681 164.081 224.958C164.199 225.229 164.369 225.444 164.592 225.604C164.814 225.757 165.109 225.833 165.477 225.833ZM177.758 217.062V219.5H170.967V217.062H177.758ZM172.394 214.26H175.904V224.656C175.904 224.955 175.939 225.187 176.008 225.354C176.078 225.514 176.196 225.628 176.363 225.698C176.536 225.76 176.765 225.792 177.05 225.792C177.251 225.792 177.418 225.788 177.55 225.781C177.682 225.767 177.807 225.75 177.925 225.729V228.24C177.626 228.337 177.314 228.41 176.988 228.458C176.661 228.514 176.314 228.542 175.946 228.542C175.196 228.542 174.553 228.424 174.019 228.187C173.491 227.951 173.088 227.58 172.81 227.073C172.533 226.566 172.394 225.906 172.394 225.094V214.26ZM191.988 213.167V228.333H188.342L182.977 218.896V228.333H179.321V213.167H182.977L188.342 222.604V213.167H191.988ZM199.988 225.5V220.854C199.988 220.535 199.942 220.26 199.852 220.031C199.762 219.802 199.619 219.625 199.425 219.5C199.231 219.368 198.97 219.302 198.644 219.302C198.38 219.302 198.154 219.347 197.967 219.437C197.779 219.528 197.637 219.663 197.54 219.844C197.442 220.024 197.394 220.253 197.394 220.531H193.883C193.883 220.01 193.998 219.528 194.227 219.083C194.463 218.632 194.797 218.24 195.227 217.906C195.665 217.573 196.185 217.316 196.79 217.135C197.401 216.948 198.081 216.854 198.831 216.854C199.727 216.854 200.526 217.003 201.227 217.302C201.935 217.601 202.494 218.049 202.904 218.646C203.314 219.236 203.519 219.979 203.519 220.875V225.49C203.519 226.226 203.56 226.785 203.644 227.167C203.727 227.542 203.845 227.872 203.998 228.156V228.333H200.477C200.31 227.986 200.185 227.562 200.102 227.062C200.026 226.556 199.988 226.035 199.988 225.5ZM200.415 221.448L200.435 223.323H198.883C198.557 223.323 198.279 223.368 198.05 223.458C197.828 223.549 197.647 223.674 197.508 223.833C197.376 223.986 197.279 224.16 197.217 224.354C197.161 224.549 197.133 224.753 197.133 224.969C197.133 225.177 197.182 225.365 197.279 225.531C197.383 225.691 197.522 225.816 197.696 225.906C197.869 225.997 198.064 226.042 198.279 226.042C198.668 226.042 198.998 225.969 199.269 225.823C199.547 225.67 199.758 225.486 199.904 225.271C200.05 225.056 200.123 224.854 200.123 224.667L200.894 226.104C200.755 226.382 200.595 226.663 200.415 226.948C200.241 227.233 200.022 227.497 199.758 227.74C199.501 227.976 199.185 228.17 198.81 228.323C198.435 228.469 197.981 228.542 197.446 228.542C196.751 228.542 196.113 228.399 195.529 228.115C194.953 227.83 194.491 227.434 194.144 226.927C193.797 226.413 193.623 225.823 193.623 225.156C193.623 224.573 193.727 224.052 193.935 223.594C194.151 223.135 194.474 222.747 194.904 222.427C195.335 222.108 195.883 221.865 196.55 221.698C197.217 221.531 198.001 221.448 198.904 221.448H200.415ZM211.404 217.062V219.5H204.613V217.062H211.404ZM206.04 214.26H209.55V224.656C209.55 224.955 209.585 225.187 209.654 225.354C209.724 225.514 209.842 225.628 210.008 225.698C210.182 225.76 210.411 225.792 210.696 225.792C210.897 225.792 211.064 225.788 211.196 225.781C211.328 225.767 211.453 225.75 211.571 225.729V228.24C211.272 228.337 210.96 228.41 210.633 228.458C210.307 228.514 209.96 228.542 209.592 228.542C208.842 228.542 208.199 228.424 207.665 228.187C207.137 227.951 206.734 227.58 206.456 227.073C206.178 226.566 206.04 225.906 206.04 225.094V214.26ZM216.508 217.062V228.333H212.988V217.062H216.508ZM212.779 214.156C212.779 213.656 212.96 213.247 213.321 212.927C213.682 212.608 214.151 212.448 214.727 212.448C215.303 212.448 215.772 212.608 216.133 212.927C216.494 213.247 216.675 213.656 216.675 214.156C216.675 214.656 216.494 215.066 216.133 215.385C215.772 215.705 215.303 215.865 214.727 215.865C214.151 215.865 213.682 215.705 213.321 215.385C212.96 215.066 212.779 214.656 212.779 214.156ZM222.738 225.927L224.956 217.062H228.654L224.967 228.333H222.779L222.738 225.927ZM221.425 217.062L223.613 225.927L223.592 228.333H221.394L217.717 217.062H221.425ZM235.008 228.542C234.092 228.542 233.272 228.399 232.55 228.115C231.828 227.823 231.217 227.424 230.717 226.917C230.224 226.41 229.845 225.826 229.581 225.167C229.324 224.507 229.196 223.809 229.196 223.073V222.677C229.196 221.851 229.31 221.087 229.54 220.385C229.769 219.677 230.109 219.059 230.56 218.531C231.012 218.003 231.578 217.594 232.258 217.302C232.939 217.003 233.731 216.854 234.633 216.854C235.432 216.854 236.147 216.983 236.779 217.24C237.411 217.497 237.946 217.865 238.383 218.344C238.828 218.823 239.165 219.403 239.394 220.083C239.63 220.764 239.748 221.528 239.748 222.375V223.802H230.54V221.604H236.321V221.333C236.328 220.958 236.262 220.639 236.123 220.375C235.991 220.111 235.797 219.91 235.54 219.771C235.283 219.632 234.97 219.562 234.602 219.562C234.22 219.562 233.904 219.646 233.654 219.812C233.411 219.979 233.22 220.208 233.081 220.5C232.949 220.785 232.856 221.115 232.8 221.49C232.744 221.865 232.717 222.26 232.717 222.677V223.073C232.717 223.49 232.772 223.868 232.883 224.208C233.001 224.549 233.168 224.84 233.383 225.083C233.606 225.319 233.869 225.503 234.175 225.635C234.488 225.767 234.842 225.833 235.238 225.833C235.717 225.833 236.189 225.743 236.654 225.562C237.119 225.382 237.519 225.083 237.852 224.667L239.446 226.562C239.217 226.889 238.89 227.205 238.467 227.51C238.05 227.816 237.55 228.066 236.967 228.26C236.383 228.448 235.731 228.542 235.008 228.542Z" fill="white"/>
<rect x="281" y="196.333" width="142" height="49.3333" rx="4.66667" fill="#888888" stroke="#888888" stroke-width="4"/>
<path d="M325.5 213.167H331.469C332.635 213.167 333.649 213.34 334.51 213.687C335.372 214.035 336.035 214.549 336.5 215.229C336.972 215.91 337.208 216.75 337.208 217.75C337.208 218.618 337.073 219.344 336.802 219.927C336.531 220.51 336.153 220.993 335.667 221.375C335.188 221.75 334.628 222.059 333.99 222.302L332.792 222.979H327.781L327.76 220.156H331.469C331.934 220.156 332.319 220.073 332.625 219.906C332.931 219.74 333.16 219.503 333.313 219.198C333.472 218.885 333.552 218.514 333.552 218.083C333.552 217.646 333.472 217.271 333.313 216.958C333.153 216.646 332.917 216.406 332.604 216.24C332.299 216.073 331.92 215.99 331.469 215.99H329.156V228.333H325.5V213.167ZM333.802 228.333L330.448 221.625L334.323 221.604L337.719 228.177V228.333H333.802ZM344.708 228.542C343.792 228.542 342.972 228.399 342.25 228.115C341.528 227.823 340.917 227.424 340.417 226.917C339.924 226.41 339.545 225.826 339.281 225.167C339.024 224.507 338.896 223.809 338.896 223.073V222.677C338.896 221.851 339.01 221.087 339.24 220.385C339.469 219.677 339.809 219.059 340.26 218.531C340.712 218.003 341.278 217.594 341.958 217.302C342.639 217.003 343.431 216.854 344.333 216.854C345.132 216.854 345.847 216.983 346.479 217.24C347.111 217.497 347.646 217.865 348.083 218.344C348.528 218.823 348.865 219.403 349.094 220.083C349.33 220.764 349.448 221.528 349.448 222.375V223.802H340.24V221.604H346.021V221.333C346.028 220.958 345.962 220.639 345.823 220.375C345.691 220.111 345.497 219.91 345.24 219.771C344.983 219.632 344.67 219.562 344.302 219.562C343.92 219.562 343.604 219.646 343.354 219.812C343.111 219.979 342.92 220.208 342.781 220.5C342.649 220.785 342.556 221.115 342.5 221.49C342.444 221.865 342.417 222.26 342.417 222.677V223.073C342.417 223.49 342.472 223.868 342.583 224.208C342.701 224.549 342.868 224.84 343.083 225.083C343.306 225.319 343.569 225.503 343.875 225.635C344.188 225.767 344.542 225.833 344.938 225.833C345.417 225.833 345.889 225.743 346.354 225.562C346.819 225.382 347.219 225.083 347.552 224.667L349.146 226.562C348.917 226.889 348.59 227.205 348.167 227.51C347.75 227.816 347.25 228.066 346.667 228.26C346.083 228.448 345.431 228.542 344.708 228.542ZM356.729 225.5V220.854C356.729 220.535 356.684 220.26 356.594 220.031C356.503 219.802 356.361 219.625 356.167 219.5C355.972 219.368 355.712 219.302 355.385 219.302C355.122 219.302 354.896 219.347 354.708 219.437C354.521 219.528 354.378 219.663 354.281 219.844C354.184 220.024 354.135 220.253 354.135 220.531H350.625C350.625 220.01 350.74 219.528 350.969 219.083C351.205 218.632 351.538 218.24 351.969 217.906C352.406 217.573 352.927 217.316 353.531 217.135C354.142 216.948 354.823 216.854 355.573 216.854C356.469 216.854 357.267 217.003 357.969 217.302C358.677 217.601 359.236 218.049 359.646 218.646C360.056 219.236 360.26 219.979 360.26 220.875V225.49C360.26 226.226 360.302 226.785 360.385 227.167C360.469 227.542 360.587 227.872 360.74 228.156V228.333H357.219C357.052 227.986 356.927 227.562 356.844 227.062C356.767 226.556 356.729 226.035 356.729 225.5ZM357.156 221.448L357.177 223.323H355.625C355.299 223.323 355.021 223.368 354.792 223.458C354.569 223.549 354.389 223.674 354.25 223.833C354.118 223.986 354.021 224.16 353.958 224.354C353.903 224.549 353.875 224.753 353.875 224.969C353.875 225.177 353.924 225.365 354.021 225.531C354.125 225.691 354.264 225.816 354.438 225.906C354.611 225.997 354.806 226.042 355.021 226.042C355.41 226.042 355.74 225.969 356.01 225.823C356.288 225.67 356.5 225.486 356.646 225.271C356.792 225.056 356.865 224.854 356.865 224.667L357.635 226.104C357.497 226.382 357.337 226.663 357.156 226.948C356.983 227.233 356.764 227.497 356.5 227.74C356.243 227.976 355.927 228.17 355.552 228.323C355.177 228.469 354.722 228.542 354.188 228.542C353.493 228.542 352.854 228.399 352.271 228.115C351.694 227.83 351.233 227.434 350.885 226.927C350.538 226.413 350.365 225.823 350.365 225.156C350.365 224.573 350.469 224.052 350.677 223.594C350.892 223.135 351.215 222.747 351.646 222.427C352.076 222.108 352.625 221.865 353.292 221.698C353.958 221.531 354.743 221.448 355.646 221.448H357.156ZM366.969 225.833C367.295 225.833 367.573 225.774 367.802 225.656C368.038 225.531 368.215 225.358 368.333 225.135C368.458 224.906 368.517 224.632 368.51 224.312H371.813C371.819 225.16 371.611 225.903 371.188 226.542C370.771 227.174 370.201 227.667 369.479 228.021C368.764 228.368 367.955 228.542 367.052 228.542C366.17 228.542 365.399 228.399 364.74 228.115C364.08 227.823 363.528 227.42 363.083 226.906C362.646 226.385 362.316 225.778 362.094 225.083C361.878 224.389 361.771 223.635 361.771 222.823V222.583C361.771 221.771 361.878 221.017 362.094 220.323C362.316 219.622 362.646 219.014 363.083 218.5C363.528 217.979 364.076 217.576 364.729 217.292C365.389 217 366.156 216.854 367.031 216.854C367.969 216.854 368.795 217.031 369.51 217.385C370.233 217.74 370.799 218.253 371.208 218.927C371.618 219.601 371.819 220.417 371.813 221.375H368.51C368.517 221.035 368.465 220.729 368.354 220.458C368.243 220.187 368.069 219.972 367.833 219.812C367.604 219.646 367.309 219.562 366.948 219.562C366.587 219.562 366.295 219.642 366.073 219.802C365.851 219.962 365.681 220.184 365.563 220.469C365.451 220.747 365.375 221.066 365.333 221.427C365.299 221.788 365.281 222.174 365.281 222.583V222.823C365.281 223.24 365.299 223.632 365.333 224C365.375 224.361 365.455 224.681 365.573 224.958C365.691 225.229 365.861 225.444 366.083 225.604C366.306 225.757 366.601 225.833 366.969 225.833ZM379.25 217.062V219.5H372.458V217.062H379.25ZM373.885 214.26H377.396V224.656C377.396 224.955 377.431 225.187 377.5 225.354C377.569 225.514 377.688 225.628 377.854 225.698C378.028 225.76 378.257 225.792 378.542 225.792C378.743 225.792 378.91 225.788 379.042 225.781C379.174 225.767 379.299 225.75 379.417 225.729V228.24C379.118 228.337 378.806 228.41 378.479 228.458C378.153 228.514 377.806 228.542 377.438 228.542C376.688 228.542 376.045 228.424 375.51 228.187C374.983 227.951 374.58 227.58 374.302 227.073C374.024 226.566 373.885 225.906 373.885 225.094V214.26Z" fill="white"/>
<rect x="447" y="196.333" width="142" height="49.3333" rx="4.66667" fill="#888888" stroke="#888888" stroke-width="4"/>
<path d="M489.781 225.521V228.333H481.698V225.521H489.781ZM483 213.167V228.333H479.344V213.167H483ZM488.74 219.187V221.906H481.698V219.187H488.74ZM489.813 213.167V215.99H481.698V213.167H489.813ZM494.823 212.333V228.333H491.302V212.333H494.823ZM502.448 228.542C501.531 228.542 500.712 228.399 499.99 228.115C499.267 227.823 498.656 227.424 498.156 226.917C497.663 226.41 497.285 225.826 497.021 225.167C496.764 224.507 496.635 223.809 496.635 223.073V222.677C496.635 221.851 496.75 221.087 496.979 220.385C497.208 219.677 497.549 219.059 498 218.531C498.451 218.003 499.017 217.594 499.698 217.302C500.378 217.003 501.17 216.854 502.073 216.854C502.872 216.854 503.587 216.983 504.219 217.24C504.851 217.497 505.385 217.865 505.823 218.344C506.267 218.823 506.604 219.403 506.833 220.083C507.069 220.764 507.188 221.528 507.188 222.375V223.802H497.979V221.604H503.76V221.333C503.767 220.958 503.701 220.639 503.563 220.375C503.431 220.111 503.236 219.91 502.979 219.771C502.722 219.632 502.41 219.562 502.042 219.562C501.66 219.562 501.344 219.646 501.094 219.812C500.851 219.979 500.66 220.208 500.521 220.5C500.389 220.785 500.295 221.115 500.24 221.49C500.184 221.865 500.156 222.26 500.156 222.677V223.073C500.156 223.49 500.212 223.868 500.323 224.208C500.441 224.549 500.608 224.84 500.823 225.083C501.045 225.319 501.309 225.503 501.615 225.635C501.927 225.767 502.281 225.833 502.677 225.833C503.156 225.833 503.628 225.743 504.094 225.562C504.559 225.382 504.958 225.083 505.292 224.667L506.885 226.562C506.656 226.889 506.33 227.205 505.906 227.51C505.49 227.816 504.99 228.066 504.406 228.26C503.823 228.448 503.17 228.542 502.448 228.542ZM513.375 225.833C513.701 225.833 513.979 225.774 514.208 225.656C514.444 225.531 514.622 225.358 514.74 225.135C514.865 224.906 514.924 224.632 514.917 224.312H518.219C518.226 225.16 518.017 225.903 517.594 226.542C517.177 227.174 516.608 227.667 515.885 228.021C515.17 228.368 514.361 228.542 513.458 228.542C512.576 228.542 511.806 228.399 511.146 228.115C510.486 227.823 509.934 227.42 509.49 226.906C509.052 226.385 508.722 225.778 508.5 225.083C508.285 224.389 508.177 223.635 508.177 222.823V222.583C508.177 221.771 508.285 221.017 508.5 220.323C508.722 219.622 509.052 219.014 509.49 218.5C509.934 217.979 510.483 217.576 511.135 217.292C511.795 217 512.563 216.854 513.438 216.854C514.375 216.854 515.201 217.031 515.917 217.385C516.639 217.74 517.205 218.253 517.615 218.927C518.024 219.601 518.226 220.417 518.219 221.375H514.917C514.924 221.035 514.872 220.729 514.76 220.458C514.649 220.187 514.476 219.972 514.24 219.812C514.01 219.646 513.715 219.562 513.354 219.562C512.993 219.562 512.701 219.642 512.479 219.802C512.257 219.962 512.087 220.184 511.969 220.469C511.858 220.747 511.781 221.066 511.74 221.427C511.705 221.788 511.688 222.174 511.688 222.583V222.823C511.688 223.24 511.705 223.632 511.74 224C511.781 224.361 511.861 224.681 511.979 224.958C512.097 225.229 512.267 225.444 512.49 225.604C512.712 225.757 513.007 225.833 513.375 225.833ZM525.656 217.062V219.5H518.865V217.062H525.656ZM520.292 214.26H523.802V224.656C523.802 224.955 523.837 225.187 523.906 225.354C523.976 225.514 524.094 225.628 524.26 225.698C524.434 225.76 524.663 225.792 524.948 225.792C525.149 225.792 525.316 225.788 525.448 225.781C525.58 225.767 525.705 225.75 525.823 225.729V228.24C525.524 228.337 525.212 228.41 524.885 228.458C524.559 228.514 524.212 228.542 523.844 228.542C523.094 228.542 522.451 228.424 521.917 228.187C521.389 227.951 520.986 227.58 520.708 227.073C520.431 226.566 520.292 225.906 520.292 225.094V214.26ZM530.594 219.854V228.333H527.083V217.062H530.365L530.594 219.854ZM533.927 216.979L533.865 220.24C533.726 220.226 533.538 220.208 533.302 220.187C533.066 220.167 532.868 220.156 532.708 220.156C532.299 220.156 531.944 220.205 531.646 220.302C531.354 220.392 531.111 220.531 530.917 220.719C530.729 220.899 530.59 221.128 530.5 221.406C530.417 221.684 530.378 222.007 530.385 222.375L529.75 221.958C529.75 221.201 529.823 220.514 529.969 219.896C530.122 219.271 530.337 218.733 530.615 218.281C530.892 217.823 531.229 217.472 531.625 217.229C532.021 216.979 532.465 216.854 532.958 216.854C533.132 216.854 533.302 216.865 533.469 216.885C533.642 216.906 533.795 216.937 533.927 216.979ZM534.323 222.812V222.594C534.323 221.767 534.441 221.007 534.677 220.312C534.913 219.611 535.26 219.003 535.719 218.49C536.177 217.976 536.743 217.576 537.417 217.292C538.09 217 538.868 216.854 539.75 216.854C540.639 216.854 541.42 217 542.094 217.292C542.774 217.576 543.344 217.976 543.802 218.49C544.26 219.003 544.608 219.611 544.844 220.312C545.08 221.007 545.198 221.767 545.198 222.594V222.812C545.198 223.632 545.08 224.392 544.844 225.094C544.608 225.788 544.26 226.396 543.802 226.917C543.344 227.431 542.778 227.83 542.104 228.115C541.431 228.399 540.653 228.542 539.771 228.542C538.889 228.542 538.108 228.399 537.427 228.115C536.747 227.83 536.177 227.431 535.719 226.917C535.26 226.396 534.913 225.788 534.677 225.094C534.441 224.392 534.323 223.632 534.323 222.812ZM537.833 222.594V222.812C537.833 223.236 537.865 223.632 537.927 224C537.99 224.368 538.094 224.691 538.24 224.969C538.385 225.24 538.583 225.451 538.833 225.604C539.083 225.757 539.396 225.833 539.771 225.833C540.139 225.833 540.444 225.757 540.688 225.604C540.938 225.451 541.135 225.24 541.281 224.969C541.427 224.691 541.531 224.368 541.594 224C541.656 223.632 541.688 223.236 541.688 222.812V222.594C541.688 222.184 541.656 221.799 541.594 221.437C541.531 221.069 541.427 220.747 541.281 220.469C541.135 220.184 540.938 219.962 540.688 219.802C540.438 219.642 540.125 219.562 539.75 219.562C539.382 219.562 539.073 219.642 538.823 219.802C538.58 219.962 538.385 220.184 538.24 220.469C538.094 220.747 537.99 221.069 537.927 221.437C537.865 221.799 537.833 222.184 537.833 222.594ZM550.208 219.469V228.333H546.698V217.062H549.99L550.208 219.469ZM549.792 222.312L548.969 222.333C548.969 221.472 549.073 220.705 549.281 220.031C549.49 219.351 549.785 218.774 550.167 218.302C550.549 217.83 551.003 217.472 551.531 217.229C552.066 216.979 552.66 216.854 553.313 216.854C553.833 216.854 554.309 216.931 554.74 217.083C555.177 217.236 555.552 217.483 555.865 217.823C556.184 218.163 556.427 218.615 556.594 219.177C556.767 219.733 556.854 220.42 556.854 221.24V228.333H553.323V221.229C553.323 220.778 553.26 220.434 553.135 220.198C553.01 219.955 552.83 219.788 552.594 219.698C552.358 219.608 552.069 219.562 551.729 219.562C551.368 219.562 551.063 219.632 550.813 219.771C550.563 219.91 550.361 220.104 550.208 220.354C550.063 220.597 549.955 220.885 549.885 221.219C549.823 221.552 549.792 221.917 549.792 222.312Z" fill="white"/>
<rect x="613" y="196.333" width="142" height="49.3333" rx="4.66667" fill="#888888" stroke="#888888" stroke-width="4"/>
<path d="M657.427 225.521V228.333H649.344V225.521H657.427ZM650.646 213.167V228.333H646.99V213.167H650.646ZM656.385 219.187V221.906H649.344V219.187H656.385ZM657.458 213.167V215.99H649.344V213.167H657.458ZM661.74 217.062L663.323 220.167L664.958 217.062H668.604L665.646 222.552L668.76 228.333H665.083L663.323 225L661.573 228.333H657.896L661.01 222.552L658.062 217.062H661.74ZM673.302 219.229V232.667H669.792V217.062H673.062L673.302 219.229ZM680.219 222.562V222.781C680.219 223.601 680.125 224.361 679.937 225.062C679.75 225.764 679.472 226.375 679.104 226.896C678.736 227.417 678.278 227.823 677.729 228.115C677.187 228.399 676.559 228.542 675.844 228.542C675.17 228.542 674.59 228.392 674.104 228.094C673.618 227.795 673.212 227.382 672.885 226.854C672.559 226.326 672.295 225.722 672.094 225.042C671.892 224.361 671.733 223.642 671.615 222.885V222.604C671.733 221.792 671.892 221.038 672.094 220.344C672.295 219.642 672.559 219.031 672.885 218.51C673.212 217.99 673.615 217.583 674.094 217.292C674.58 217 675.16 216.854 675.833 216.854C676.549 216.854 677.177 216.99 677.719 217.26C678.267 217.531 678.726 217.92 679.094 218.427C679.469 218.927 679.75 219.528 679.937 220.229C680.125 220.931 680.219 221.708 680.219 222.562ZM676.708 222.781V222.562C676.708 222.125 676.677 221.726 676.615 221.365C676.552 220.997 676.451 220.677 676.312 220.406C676.181 220.135 676.003 219.927 675.781 219.781C675.559 219.635 675.285 219.562 674.958 219.562C674.583 219.562 674.267 219.622 674.01 219.74C673.76 219.851 673.559 220.024 673.406 220.26C673.26 220.49 673.156 220.778 673.094 221.125C673.038 221.465 673.014 221.865 673.021 222.323V223.177C673.007 223.705 673.059 224.17 673.177 224.573C673.295 224.969 673.5 225.278 673.792 225.5C674.083 225.722 674.479 225.833 674.979 225.833C675.312 225.833 675.59 225.757 675.812 225.604C676.035 225.444 676.212 225.226 676.344 224.948C676.476 224.663 676.569 224.337 676.625 223.969C676.681 223.601 676.708 223.205 676.708 222.781ZM685.323 219.854V228.333H681.813V217.062H685.094L685.323 219.854ZM688.656 216.979L688.594 220.24C688.455 220.226 688.267 220.208 688.031 220.187C687.795 220.167 687.597 220.156 687.438 220.156C687.028 220.156 686.674 220.205 686.375 220.302C686.083 220.392 685.84 220.531 685.646 220.719C685.458 220.899 685.319 221.128 685.229 221.406C685.146 221.684 685.108 222.007 685.115 222.375L684.479 221.958C684.479 221.201 684.552 220.514 684.698 219.896C684.851 219.271 685.066 218.733 685.344 218.281C685.622 217.823 685.958 217.472 686.354 217.229C686.75 216.979 687.194 216.854 687.688 216.854C687.861 216.854 688.031 216.865 688.198 216.885C688.372 216.906 688.524 216.937 688.656 216.979ZM695.115 228.542C694.198 228.542 693.378 228.399 692.656 228.115C691.934 227.823 691.323 227.424 690.823 226.917C690.33 226.41 689.951 225.826 689.688 225.167C689.431 224.507 689.302 223.809 689.302 223.073V222.677C689.302 221.851 689.417 221.087 689.646 220.385C689.875 219.677 690.215 219.059 690.667 218.531C691.118 218.003 691.684 217.594 692.365 217.302C693.045 217.003 693.837 216.854 694.74 216.854C695.538 216.854 696.253 216.983 696.885 217.24C697.517 217.497 698.052 217.865 698.49 218.344C698.934 218.823 699.271 219.403 699.5 220.083C699.736 220.764 699.854 221.528 699.854 222.375V223.802H690.646V221.604H696.427V221.333C696.434 220.958 696.368 220.639 696.229 220.375C696.097 220.111 695.903 219.91 695.646 219.771C695.389 219.632 695.076 219.562 694.708 219.562C694.326 219.562 694.01 219.646 693.76 219.812C693.517 219.979 693.326 220.208 693.188 220.5C693.056 220.785 692.962 221.115 692.906 221.49C692.851 221.865 692.823 222.26 692.823 222.677V223.073C692.823 223.49 692.878 223.868 692.99 224.208C693.108 224.549 693.274 224.84 693.49 225.083C693.712 225.319 693.976 225.503 694.281 225.635C694.594 225.767 694.948 225.833 695.344 225.833C695.823 225.833 696.295 225.743 696.76 225.562C697.226 225.382 697.625 225.083 697.958 224.667L699.552 226.562C699.323 226.889 698.997 227.205 698.573 227.51C698.156 227.816 697.656 228.066 697.073 228.26C696.49 228.448 695.837 228.542 695.115 228.542ZM707.188 225.167C707.188 224.972 707.122 224.806 706.99 224.667C706.865 224.521 706.642 224.389 706.323 224.271C706.003 224.146 705.556 224.021 704.979 223.896C704.431 223.778 703.913 223.622 703.427 223.427C702.948 223.233 702.528 222.997 702.167 222.719C701.806 222.441 701.521 222.111 701.313 221.729C701.111 221.347 701.01 220.91 701.01 220.417C701.01 219.937 701.111 219.486 701.313 219.062C701.521 218.632 701.823 218.253 702.219 217.927C702.622 217.594 703.111 217.333 703.688 217.146C704.264 216.951 704.92 216.854 705.656 216.854C706.67 216.854 707.545 217.01 708.281 217.323C709.017 217.628 709.583 218.059 709.979 218.615C710.382 219.163 710.583 219.799 710.583 220.521H707.073C707.073 220.236 707.024 219.993 706.927 219.792C706.837 219.59 706.688 219.437 706.479 219.333C706.271 219.222 705.993 219.167 705.646 219.167C705.403 219.167 705.181 219.212 704.979 219.302C704.785 219.392 704.628 219.517 704.51 219.677C704.392 219.837 704.333 220.024 704.333 220.24C704.333 220.392 704.368 220.531 704.438 220.656C704.514 220.774 704.628 220.885 704.781 220.99C704.934 221.087 705.128 221.177 705.365 221.26C705.601 221.337 705.885 221.406 706.219 221.469C706.976 221.608 707.684 221.806 708.344 222.062C709.003 222.319 709.538 222.684 709.948 223.156C710.365 223.628 710.573 224.264 710.573 225.062C710.573 225.562 710.458 226.024 710.229 226.448C710 226.865 709.67 227.233 709.24 227.552C708.809 227.865 708.292 228.108 707.688 228.281C707.083 228.455 706.403 228.542 705.646 228.542C704.569 228.542 703.66 228.351 702.917 227.969C702.174 227.58 701.611 227.094 701.229 226.51C700.854 225.92 700.667 225.323 700.667 224.719H703.938C703.951 225.066 704.035 225.351 704.188 225.573C704.347 225.795 704.559 225.958 704.823 226.062C705.087 226.167 705.392 226.219 705.74 226.219C706.059 226.219 706.323 226.174 706.531 226.083C706.747 225.993 706.91 225.872 707.021 225.719C707.132 225.559 707.188 225.375 707.188 225.167ZM718.125 225.167C718.125 224.972 718.059 224.806 717.927 224.667C717.802 224.521 717.58 224.389 717.26 224.271C716.941 224.146 716.493 224.021 715.917 223.896C715.368 223.778 714.851 223.622 714.365 223.427C713.885 223.233 713.465 222.997 713.104 222.719C712.743 222.441 712.458 222.111 712.25 221.729C712.049 221.347 711.948 220.91 711.948 220.417C711.948 219.937 712.049 219.486 712.25 219.062C712.458 218.632 712.76 218.253 713.156 217.927C713.559 217.594 714.049 217.333 714.625 217.146C715.201 216.951 715.858 216.854 716.594 216.854C717.608 216.854 718.483 217.01 719.219 217.323C719.955 217.628 720.521 218.059 720.917 218.615C721.319 219.163 721.521 219.799 721.521 220.521H718.01C718.01 220.236 717.962 219.993 717.865 219.792C717.774 219.59 717.625 219.437 717.417 219.333C717.208 219.222 716.931 219.167 716.583 219.167C716.34 219.167 716.118 219.212 715.917 219.302C715.722 219.392 715.566 219.517 715.448 219.677C715.33 219.837 715.271 220.024 715.271 220.24C715.271 220.392 715.306 220.531 715.375 220.656C715.451 220.774 715.566 220.885 715.719 220.99C715.872 221.087 716.066 221.177 716.302 221.26C716.538 221.337 716.823 221.406 717.156 221.469C717.913 221.608 718.622 221.806 719.281 222.062C719.941 222.319 720.476 222.684 720.885 223.156C721.302 223.628 721.51 224.264 721.51 225.062C721.51 225.562 721.396 226.024 721.167 226.448C720.938 226.865 720.608 227.233 720.177 227.552C719.747 227.865 719.229 228.108 718.625 228.281C718.021 228.455 717.34 228.542 716.583 228.542C715.507 228.542 714.597 228.351 713.854 227.969C713.111 227.58 712.549 227.094 712.167 226.51C711.792 225.92 711.604 225.323 711.604 224.719H714.875C714.889 225.066 714.972 225.351 715.125 225.573C715.285 225.795 715.497 225.958 715.76 226.062C716.024 226.167 716.33 226.219 716.677 226.219C716.997 226.219 717.26 226.174 717.469 226.083C717.684 225.993 717.847 225.872 717.958 225.719C718.069 225.559 718.125 225.375 718.125 225.167Z" fill="white"/>
<rect x="779" y="196.333" width="142" height="49.3333" rx="4.66667" fill="#888888" stroke="#888888" stroke-width="4"/>
<path d="M826.937 213.167V228.333H823.292L817.927 218.896V228.333H814.271V213.167H817.927L823.292 222.604V213.167H826.937ZM828.646 222.812V222.594C828.646 221.767 828.764 221.007 829 220.312C829.236 219.611 829.583 219.003 830.042 218.49C830.5 217.976 831.066 217.576 831.74 217.292C832.413 217 833.191 216.854 834.073 216.854C834.962 216.854 835.743 217 836.417 217.292C837.097 217.576 837.667 217.976 838.125 218.49C838.583 219.003 838.931 219.611 839.167 220.312C839.403 221.007 839.521 221.767 839.521 222.594V222.812C839.521 223.632 839.403 224.392 839.167 225.094C838.931 225.788 838.583 226.396 838.125 226.917C837.667 227.431 837.101 227.83 836.427 228.115C835.753 228.399 834.976 228.542 834.094 228.542C833.212 228.542 832.431 228.399 831.75 228.115C831.069 227.83 830.5 227.431 830.042 226.917C829.583 226.396 829.236 225.788 829 225.094C828.764 224.392 828.646 223.632 828.646 222.812ZM832.156 222.594V222.812C832.156 223.236 832.188 223.632 832.25 224C832.313 224.368 832.417 224.691 832.563 224.969C832.708 225.24 832.906 225.451 833.156 225.604C833.406 225.757 833.719 225.833 834.094 225.833C834.462 225.833 834.767 225.757 835.01 225.604C835.26 225.451 835.458 225.24 835.604 224.969C835.75 224.691 835.854 224.368 835.917 224C835.979 223.632 836.01 223.236 836.01 222.812V222.594C836.01 222.184 835.979 221.799 835.917 221.437C835.854 221.069 835.75 220.747 835.604 220.469C835.458 220.184 835.26 219.962 835.01 219.802C834.76 219.642 834.448 219.562 834.073 219.562C833.705 219.562 833.396 219.642 833.146 219.802C832.903 219.962 832.708 220.184 832.563 220.469C832.417 220.747 832.313 221.069 832.25 221.437C832.188 221.799 832.156 222.184 832.156 222.594ZM847.563 225.75V212.333H851.094V228.333H847.927L847.563 225.75ZM840.646 222.833V222.615C840.646 221.76 840.74 220.983 840.927 220.281C841.115 219.573 841.392 218.965 841.76 218.458C842.128 217.944 842.587 217.549 843.135 217.271C843.684 216.993 844.316 216.854 845.031 216.854C845.67 216.854 846.229 217.003 846.708 217.302C847.188 217.594 847.597 218.003 847.938 218.531C848.278 219.059 848.556 219.677 848.771 220.385C848.986 221.087 849.149 221.844 849.26 222.656V222.917C849.149 223.681 848.986 224.403 848.771 225.083C848.556 225.757 848.278 226.354 847.938 226.875C847.597 227.396 847.184 227.806 846.698 228.104C846.219 228.396 845.656 228.542 845.01 228.542C844.295 228.542 843.663 228.399 843.115 228.115C842.573 227.83 842.118 227.431 841.75 226.917C841.389 226.403 841.115 225.799 840.927 225.104C840.74 224.41 840.646 223.653 840.646 222.833ZM844.156 222.615V222.833C844.156 223.257 844.184 223.649 844.24 224.01C844.295 224.372 844.389 224.691 844.521 224.969C844.66 225.24 844.84 225.451 845.063 225.604C845.292 225.757 845.573 225.833 845.906 225.833C846.358 225.833 846.729 225.726 847.021 225.51C847.319 225.295 847.538 224.99 847.677 224.594C847.823 224.198 847.885 223.733 847.865 223.198V222.375C847.878 221.917 847.847 221.514 847.771 221.167C847.694 220.812 847.573 220.517 847.406 220.281C847.247 220.045 847.042 219.868 846.792 219.75C846.549 219.625 846.26 219.562 845.927 219.562C845.601 219.562 845.323 219.639 845.094 219.792C844.872 219.944 844.691 220.16 844.552 220.437C844.413 220.708 844.313 221.031 844.25 221.406C844.188 221.774 844.156 222.177 844.156 222.615ZM858.542 228.542C857.625 228.542 856.806 228.399 856.083 228.115C855.361 227.823 854.75 227.424 854.25 226.917C853.757 226.41 853.378 225.826 853.115 225.167C852.858 224.507 852.729 223.809 852.729 223.073V222.677C852.729 221.851 852.844 221.087 853.073 220.385C853.302 219.677 853.642 219.059 854.094 218.531C854.545 218.003 855.111 217.594 855.792 217.302C856.472 217.003 857.264 216.854 858.167 216.854C858.965 216.854 859.681 216.983 860.313 217.24C860.944 217.497 861.479 217.865 861.917 218.344C862.361 218.823 862.698 219.403 862.927 220.083C863.163 220.764 863.281 221.528 863.281 222.375V223.802H854.073V221.604H859.854V221.333C859.861 220.958 859.795 220.639 859.656 220.375C859.524 220.111 859.33 219.91 859.073 219.771C858.816 219.632 858.503 219.562 858.135 219.562C857.753 219.562 857.438 219.646 857.188 219.812C856.944 219.979 856.753 220.208 856.615 220.5C856.483 220.785 856.389 221.115 856.333 221.49C856.278 221.865 856.25 222.26 856.25 222.677V223.073C856.25 223.49 856.306 223.868 856.417 224.208C856.535 224.549 856.701 224.84 856.917 225.083C857.139 225.319 857.403 225.503 857.708 225.635C858.021 225.767 858.375 225.833 858.771 225.833C859.25 225.833 859.722 225.743 860.188 225.562C860.653 225.382 861.052 225.083 861.385 224.667L862.979 226.562C862.75 226.889 862.424 227.205 862 227.51C861.583 227.816 861.083 228.066 860.5 228.26C859.917 228.448 859.264 228.542 858.542 228.542ZM864.938 226.687C864.938 226.187 865.118 225.771 865.479 225.437C865.84 225.097 866.306 224.927 866.875 224.927C867.451 224.927 867.917 225.097 868.271 225.437C868.632 225.771 868.813 226.187 868.813 226.687C868.813 227.187 868.632 227.608 868.271 227.948C867.917 228.281 867.451 228.448 866.875 228.448C866.306 228.448 865.84 228.281 865.479 227.948C865.118 227.608 864.938 227.187 864.938 226.687ZM871.427 217.062H874.948V228.698C874.948 229.601 874.774 230.361 874.427 230.979C874.08 231.604 873.583 232.076 872.937 232.396C872.292 232.722 871.521 232.885 870.625 232.885C870.326 232.885 870.052 232.872 869.802 232.844C869.545 232.823 869.264 232.778 868.958 232.708V230.052C869.139 230.08 869.306 230.101 869.458 230.115C869.611 230.135 869.778 230.146 869.958 230.146C870.278 230.146 870.545 230.094 870.76 229.99C870.976 229.885 871.139 229.726 871.25 229.51C871.368 229.295 871.427 229.024 871.427 228.698V217.062ZM871.167 214.156C871.167 213.656 871.347 213.247 871.708 212.927C872.069 212.608 872.538 212.448 873.115 212.448C873.691 212.448 874.16 212.608 874.521 212.927C874.882 213.247 875.062 213.656 875.062 214.156C875.062 214.656 874.882 215.066 874.521 215.385C874.16 215.705 873.691 215.865 873.115 215.865C872.538 215.865 872.069 215.705 871.708 215.385C871.347 215.066 871.167 214.656 871.167 214.156ZM882.844 225.167C882.844 224.972 882.778 224.806 882.646 224.667C882.521 224.521 882.299 224.389 881.979 224.271C881.66 224.146 881.212 224.021 880.635 223.896C880.087 223.778 879.569 223.622 879.083 223.427C878.604 223.233 878.184 222.997 877.823 222.719C877.462 222.441 877.177 222.111 876.969 221.729C876.767 221.347 876.667 220.91 876.667 220.417C876.667 219.937 876.767 219.486 876.969 219.062C877.177 218.632 877.479 218.253 877.875 217.927C878.278 217.594 878.767 217.333 879.344 217.146C879.92 216.951 880.576 216.854 881.313 216.854C882.326 216.854 883.201 217.01 883.938 217.323C884.674 217.628 885.24 218.059 885.635 218.615C886.038 219.163 886.24 219.799 886.24 220.521H882.729C882.729 220.236 882.681 219.993 882.583 219.792C882.493 219.59 882.344 219.437 882.135 219.333C881.927 219.222 881.649 219.167 881.302 219.167C881.059 219.167 880.837 219.212 880.635 219.302C880.441 219.392 880.285 219.517 880.167 219.677C880.049 219.837 879.99 220.024 879.99 220.24C879.99 220.392 880.024 220.531 880.094 220.656C880.17 220.774 880.285 220.885 880.438 220.99C880.59 221.087 880.785 221.177 881.021 221.26C881.257 221.337 881.542 221.406 881.875 221.469C882.632 221.608 883.34 221.806 884 222.062C884.66 222.319 885.194 222.684 885.604 223.156C886.021 223.628 886.229 224.264 886.229 225.062C886.229 225.562 886.115 226.024 885.885 226.448C885.656 226.865 885.326 227.233 884.896 227.552C884.465 227.865 883.948 228.108 883.344 228.281C882.74 228.455 882.059 228.542 881.302 228.542C880.226 228.542 879.316 228.351 878.573 227.969C877.83 227.58 877.267 227.094 876.885 226.51C876.51 225.92 876.323 225.323 876.323 224.719H879.594C879.608 225.066 879.691 225.351 879.844 225.573C880.003 225.795 880.215 225.958 880.479 226.062C880.743 226.167 881.049 226.219 881.396 226.219C881.715 226.219 881.979 226.174 882.188 226.083C882.403 225.993 882.566 225.872 882.677 225.719C882.788 225.559 882.844 225.375 882.844 225.167Z" fill="white"/>
<rect x="945" y="196.333" width="142" height="49.3333" rx="4.66667" fill="#888888" stroke="#888888" stroke-width="4"/>
<path d="M971.656 213.167H974.635L978.021 223.719L981.406 213.167H984.385L979.229 228.333H976.813L971.656 213.167ZM969.844 213.167H972.927L973.5 224.792V228.333H969.844V213.167ZM983.115 213.167H986.208V228.333H982.542V224.792L983.115 213.167ZM987.948 222.812V222.594C987.948 221.767 988.066 221.007 988.302 220.312C988.538 219.611 988.885 219.003 989.344 218.49C989.802 217.976 990.368 217.576 991.042 217.292C991.715 217 992.493 216.854 993.375 216.854C994.264 216.854 995.045 217 995.719 217.292C996.399 217.576 996.969 217.976 997.427 218.49C997.885 219.003 998.233 219.611 998.469 220.312C998.705 221.007 998.823 221.767 998.823 222.594V222.812C998.823 223.632 998.705 224.392 998.469 225.094C998.233 225.788 997.885 226.396 997.427 226.917C996.969 227.431 996.403 227.83 995.729 228.115C995.056 228.399 994.278 228.542 993.396 228.542C992.514 228.542 991.733 228.399 991.052 228.115C990.372 227.83 989.802 227.431 989.344 226.917C988.885 226.396 988.538 225.788 988.302 225.094C988.066 224.392 987.948 223.632 987.948 222.812ZM991.458 222.594V222.812C991.458 223.236 991.49 223.632 991.552 224C991.615 224.368 991.719 224.691 991.865 224.969C992.01 225.24 992.208 225.451 992.458 225.604C992.708 225.757 993.021 225.833 993.396 225.833C993.764 225.833 994.069 225.757 994.313 225.604C994.563 225.451 994.76 225.24 994.906 224.969C995.052 224.691 995.156 224.368 995.219 224C995.281 223.632 995.313 223.236 995.313 222.812V222.594C995.313 222.184 995.281 221.799 995.219 221.437C995.156 221.069 995.052 220.747 994.906 220.469C994.76 220.184 994.563 219.962 994.313 219.802C994.063 219.642 993.75 219.562 993.375 219.562C993.007 219.562 992.698 219.642 992.448 219.802C992.205 219.962 992.01 220.184 991.865 220.469C991.719 220.747 991.615 221.069 991.552 221.437C991.49 221.799 991.458 222.184 991.458 222.594ZM1003.83 219.469V228.333H1000.32V217.062H1003.61L1003.83 219.469ZM1003.42 222.312L1002.59 222.333C1002.59 221.472 1002.7 220.705 1002.91 220.031C1003.11 219.351 1003.41 218.774 1003.79 218.302C1004.17 217.83 1004.63 217.472 1005.16 217.229C1005.69 216.979 1006.28 216.854 1006.94 216.854C1007.46 216.854 1007.93 216.931 1008.36 217.083C1008.8 217.236 1009.18 217.483 1009.49 217.823C1009.81 218.163 1010.05 218.615 1010.22 219.177C1010.39 219.733 1010.48 220.42 1010.48 221.24V228.333H1006.95V221.229C1006.95 220.778 1006.89 220.434 1006.76 220.198C1006.64 219.955 1006.45 219.788 1006.22 219.698C1005.98 219.608 1005.69 219.562 1005.35 219.562C1004.99 219.562 1004.69 219.632 1004.44 219.771C1004.19 219.91 1003.99 220.104 1003.83 220.354C1003.69 220.597 1003.58 220.885 1003.51 221.219C1003.45 221.552 1003.42 221.917 1003.42 222.312ZM1019.51 217.062H1022.7V227.896C1022.7 228.937 1022.46 229.819 1021.98 230.542C1021.5 231.271 1020.83 231.823 1019.97 232.198C1019.11 232.58 1018.11 232.771 1016.97 232.771C1016.46 232.771 1015.94 232.705 1015.42 232.573C1014.89 232.448 1014.4 232.26 1013.94 232.01C1013.48 231.76 1013.09 231.451 1012.78 231.083L1014.25 229.021C1014.53 229.34 1014.89 229.611 1015.32 229.833C1015.75 230.062 1016.26 230.177 1016.84 230.177C1017.35 230.177 1017.77 230.087 1018.11 229.906C1018.46 229.726 1018.73 229.462 1018.91 229.115C1019.09 228.774 1019.18 228.361 1019.18 227.875V219.729L1019.51 217.062ZM1012.02 222.833V222.615C1012.02 221.76 1012.13 220.983 1012.33 220.281C1012.55 219.573 1012.85 218.965 1013.25 218.458C1013.65 217.944 1014.14 217.549 1014.71 217.271C1015.28 216.993 1015.92 216.854 1016.64 216.854C1017.41 216.854 1018.04 217.003 1018.53 217.302C1019.03 217.594 1019.43 218.003 1019.73 218.531C1020.03 219.059 1020.27 219.677 1020.44 220.385C1020.61 221.087 1020.76 221.844 1020.88 222.656V222.917C1020.76 223.681 1020.59 224.403 1020.39 225.083C1020.18 225.757 1019.92 226.354 1019.59 226.875C1019.27 227.396 1018.86 227.806 1018.36 228.104C1017.88 228.396 1017.3 228.542 1016.61 228.542C1015.91 228.542 1015.27 228.399 1014.7 228.115C1014.14 227.83 1013.65 227.431 1013.25 226.917C1012.85 226.403 1012.55 225.799 1012.33 225.104C1012.13 224.41 1012.02 223.653 1012.02 222.833ZM1015.53 222.615V222.833C1015.53 223.257 1015.57 223.649 1015.65 224.01C1015.73 224.372 1015.85 224.691 1016.02 224.969C1016.19 225.24 1016.39 225.451 1016.64 225.604C1016.89 225.757 1017.18 225.833 1017.51 225.833C1018.02 225.833 1018.43 225.726 1018.74 225.51C1019.05 225.295 1019.28 224.99 1019.42 224.594C1019.56 224.198 1019.61 223.733 1019.59 223.198V222.375C1019.61 221.917 1019.58 221.514 1019.5 221.167C1019.42 220.812 1019.3 220.517 1019.14 220.281C1018.98 220.045 1018.76 219.868 1018.49 219.75C1018.23 219.625 1017.91 219.562 1017.53 219.562C1017.2 219.562 1016.92 219.639 1016.67 219.792C1016.42 219.944 1016.21 220.16 1016.04 220.437C1015.88 220.708 1015.75 221.031 1015.66 221.406C1015.57 221.774 1015.53 222.177 1015.53 222.615ZM1024.28 222.812V222.594C1024.28 221.767 1024.4 221.007 1024.64 220.312C1024.87 219.611 1025.22 219.003 1025.68 218.49C1026.14 217.976 1026.7 217.576 1027.38 217.292C1028.05 217 1028.83 216.854 1029.71 216.854C1030.6 216.854 1031.38 217 1032.05 217.292C1032.73 217.576 1033.3 217.976 1033.76 218.49C1034.22 219.003 1034.57 219.611 1034.8 220.312C1035.04 221.007 1035.16 221.767 1035.16 222.594V222.812C1035.16 223.632 1035.04 224.392 1034.8 225.094C1034.57 225.788 1034.22 226.396 1033.76 226.917C1033.3 227.431 1032.74 227.83 1032.06 228.115C1031.39 228.399 1030.61 228.542 1029.73 228.542C1028.85 228.542 1028.07 228.399 1027.39 228.115C1026.7 227.83 1026.14 227.431 1025.68 226.917C1025.22 226.396 1024.87 225.788 1024.64 225.094C1024.4 224.392 1024.28 223.632 1024.28 222.812ZM1027.79 222.594V222.812C1027.79 223.236 1027.82 223.632 1027.89 224C1027.95 224.368 1028.05 224.691 1028.2 224.969C1028.34 225.24 1028.54 225.451 1028.79 225.604C1029.04 225.757 1029.35 225.833 1029.73 225.833C1030.1 225.833 1030.4 225.757 1030.65 225.604C1030.9 225.451 1031.09 225.24 1031.24 224.969C1031.39 224.691 1031.49 224.368 1031.55 224C1031.61 223.632 1031.65 223.236 1031.65 222.812V222.594C1031.65 222.184 1031.61 221.799 1031.55 221.437C1031.49 221.069 1031.39 220.747 1031.24 220.469C1031.09 220.184 1030.9 219.962 1030.65 219.802C1030.4 219.642 1030.08 219.562 1029.71 219.562C1029.34 219.562 1029.03 219.642 1028.78 219.802C1028.54 219.962 1028.34 220.184 1028.2 220.469C1028.05 220.747 1027.95 221.069 1027.89 221.437C1027.82 221.799 1027.79 222.184 1027.79 222.594ZM1041.81 228.333H1038.45L1038.47 225.521H1041.81C1042.51 225.521 1043.09 225.354 1043.57 225.021C1044.06 224.687 1044.43 224.191 1044.68 223.531C1044.93 222.865 1045.06 222.045 1045.06 221.073V220.417C1045.06 219.687 1044.99 219.049 1044.84 218.5C1044.7 217.944 1044.5 217.483 1044.22 217.115C1043.94 216.74 1043.59 216.458 1043.18 216.271C1042.77 216.083 1042.3 215.99 1041.76 215.99H1038.39V213.167H1041.76C1042.79 213.167 1043.73 213.344 1044.58 213.698C1045.44 214.045 1046.19 214.545 1046.81 215.198C1047.44 215.844 1047.93 216.611 1048.27 217.5C1048.62 218.382 1048.79 219.361 1048.79 220.437V221.073C1048.79 222.142 1048.62 223.122 1048.27 224.01C1047.93 224.899 1047.45 225.667 1046.82 226.312C1046.2 226.958 1045.46 227.458 1044.6 227.812C1043.76 228.16 1042.83 228.333 1041.81 228.333ZM1040.54 213.167V228.333H1036.89V213.167H1040.54ZM1056.89 221.885H1052.98L1052.96 219.49H1056.13C1056.69 219.49 1057.15 219.427 1057.49 219.302C1057.83 219.17 1058.08 218.979 1058.23 218.729C1058.39 218.479 1058.47 218.167 1058.47 217.792C1058.47 217.361 1058.39 217.014 1058.23 216.75C1058.07 216.486 1057.82 216.295 1057.47 216.177C1057.13 216.052 1056.69 215.99 1056.15 215.99H1054.35V228.333H1050.7V213.167H1056.15C1057.08 213.167 1057.92 213.253 1058.66 213.427C1059.39 213.594 1060.02 213.851 1060.53 214.198C1061.05 214.545 1061.45 214.983 1061.72 215.51C1061.99 216.031 1062.13 216.646 1062.13 217.354C1062.13 217.972 1061.99 218.552 1061.73 219.094C1061.47 219.635 1061.02 220.076 1060.41 220.417C1059.8 220.75 1058.96 220.924 1057.9 220.937L1056.89 221.885ZM1056.74 228.333H1052.09L1053.34 225.521H1056.74C1057.24 225.521 1057.64 225.444 1057.94 225.292C1058.24 225.132 1058.46 224.924 1058.59 224.667C1058.73 224.403 1058.8 224.111 1058.8 223.792C1058.8 223.403 1058.74 223.066 1058.6 222.781C1058.48 222.497 1058.28 222.278 1058 222.125C1057.72 221.965 1057.35 221.885 1056.89 221.885H1053.81L1053.83 219.49H1057.51L1058.36 220.448C1059.38 220.406 1060.18 220.549 1060.77 220.875C1061.37 221.201 1061.8 221.632 1062.05 222.167C1062.31 222.701 1062.44 223.26 1062.44 223.844C1062.44 224.837 1062.22 225.667 1061.79 226.333C1061.37 227 1060.73 227.5 1059.89 227.833C1059.04 228.167 1057.99 228.333 1056.74 228.333Z" fill="white"/>
<rect x="1111" y="196.333" width="142" height="49.3333" rx="4.66667" fill="#888888" stroke="#888888" stroke-width="4"/>
<path d="M1145.33 213.167V228.333H1141.68V213.167H1145.33ZM1151.23 219.479V222.292H1144.29V219.479H1151.23ZM1151.82 213.167V215.99H1144.29V213.167H1151.82ZM1156.89 217.062V228.333H1153.36V217.062H1156.89ZM1153.16 214.156C1153.16 213.656 1153.34 213.247 1153.7 212.927C1154.06 212.608 1154.53 212.448 1155.1 212.448C1155.68 212.448 1156.15 212.608 1156.51 212.927C1156.87 213.247 1157.05 213.656 1157.05 214.156C1157.05 214.656 1156.87 215.066 1156.51 215.385C1156.15 215.705 1155.68 215.865 1155.1 215.865C1154.53 215.865 1154.06 215.705 1153.7 215.385C1153.34 215.066 1153.16 214.656 1153.16 214.156ZM1162.59 219.854V228.333H1159.08V217.062H1162.36L1162.59 219.854ZM1165.93 216.979L1165.86 220.24C1165.73 220.226 1165.54 220.208 1165.3 220.187C1165.07 220.167 1164.87 220.156 1164.71 220.156C1164.3 220.156 1163.94 220.205 1163.65 220.302C1163.35 220.392 1163.11 220.531 1162.92 220.719C1162.73 220.899 1162.59 221.128 1162.5 221.406C1162.42 221.684 1162.38 222.007 1162.39 222.375L1161.75 221.958C1161.75 221.201 1161.82 220.514 1161.97 219.896C1162.12 219.271 1162.34 218.733 1162.61 218.281C1162.89 217.823 1163.23 217.472 1163.63 217.229C1164.02 216.979 1164.47 216.854 1164.96 216.854C1165.13 216.854 1165.3 216.865 1165.47 216.885C1165.64 216.906 1165.8 216.937 1165.93 216.979ZM1172.39 228.542C1171.47 228.542 1170.65 228.399 1169.93 228.115C1169.2 227.823 1168.59 227.424 1168.09 226.917C1167.6 226.41 1167.22 225.826 1166.96 225.167C1166.7 224.507 1166.57 223.809 1166.57 223.073V222.677C1166.57 221.851 1166.69 221.087 1166.92 220.385C1167.15 219.677 1167.49 219.059 1167.94 218.531C1168.39 218.003 1168.95 217.594 1169.64 217.302C1170.32 217.003 1171.11 216.854 1172.01 216.854C1172.81 216.854 1173.52 216.983 1174.16 217.24C1174.79 217.497 1175.32 217.865 1175.76 218.344C1176.2 218.823 1176.54 219.403 1176.77 220.083C1177.01 220.764 1177.13 221.528 1177.13 222.375V223.802H1167.92V221.604H1173.7V221.333C1173.7 220.958 1173.64 220.639 1173.5 220.375C1173.37 220.111 1173.17 219.91 1172.92 219.771C1172.66 219.632 1172.35 219.562 1171.98 219.562C1171.6 219.562 1171.28 219.646 1171.03 219.812C1170.79 219.979 1170.6 220.208 1170.46 220.5C1170.33 220.785 1170.23 221.115 1170.18 221.49C1170.12 221.865 1170.09 222.26 1170.09 222.677V223.073C1170.09 223.49 1170.15 223.868 1170.26 224.208C1170.38 224.549 1170.55 224.84 1170.76 225.083C1170.98 225.319 1171.25 225.503 1171.55 225.635C1171.86 225.767 1172.22 225.833 1172.61 225.833C1173.09 225.833 1173.57 225.743 1174.03 225.562C1174.5 225.382 1174.9 225.083 1175.23 224.667L1176.82 226.562C1176.59 226.889 1176.27 227.205 1175.84 227.51C1175.43 227.816 1174.93 228.066 1174.34 228.26C1173.76 228.448 1173.11 228.542 1172.39 228.542ZM1178.58 212.333H1182.09V225.562L1181.73 228.333H1178.58V212.333ZM1189.01 222.573V222.792C1189.01 223.646 1188.92 224.424 1188.75 225.125C1188.58 225.826 1188.31 226.434 1187.95 226.948C1187.59 227.455 1187.13 227.847 1186.58 228.125C1186.03 228.403 1185.39 228.542 1184.64 228.542C1183.95 228.542 1183.37 228.396 1182.89 228.104C1182.4 227.806 1181.99 227.396 1181.67 226.875C1181.34 226.347 1181.08 225.74 1180.88 225.052C1180.67 224.358 1180.51 223.615 1180.4 222.823V222.562C1180.51 221.778 1180.67 221.042 1180.88 220.354C1181.08 219.66 1181.34 219.052 1181.67 218.531C1181.99 218.003 1182.4 217.594 1182.88 217.302C1183.36 217.003 1183.94 216.854 1184.61 216.854C1185.37 216.854 1186.02 216.997 1186.57 217.281C1187.13 217.566 1187.59 217.965 1187.95 218.479C1188.31 218.993 1188.58 219.597 1188.75 220.292C1188.92 220.986 1189.01 221.747 1189.01 222.573ZM1185.5 222.792V222.573C1185.5 222.163 1185.48 221.778 1185.43 221.417C1185.38 221.056 1185.29 220.736 1185.17 220.458C1185.04 220.181 1184.86 219.962 1184.64 219.802C1184.41 219.642 1184.11 219.562 1183.74 219.562C1183.36 219.562 1183.05 219.625 1182.79 219.75C1182.54 219.875 1182.34 220.056 1182.19 220.292C1182.04 220.521 1181.94 220.806 1181.88 221.146C1181.81 221.479 1181.78 221.858 1181.79 222.281V223.104C1181.78 223.681 1181.83 224.174 1181.95 224.583C1182.07 224.993 1182.27 225.306 1182.56 225.521C1182.85 225.736 1183.25 225.844 1183.76 225.844C1184.14 225.844 1184.44 225.771 1184.67 225.625C1184.9 225.479 1185.08 225.271 1185.2 225C1185.32 224.729 1185.4 224.406 1185.44 224.031C1185.48 223.656 1185.5 223.243 1185.5 222.792ZM1196.43 225.5V220.854C1196.43 220.535 1196.38 220.26 1196.29 220.031C1196.2 219.802 1196.06 219.625 1195.86 219.5C1195.67 219.368 1195.41 219.302 1195.08 219.302C1194.82 219.302 1194.59 219.347 1194.41 219.437C1194.22 219.528 1194.08 219.663 1193.98 219.844C1193.88 220.024 1193.83 220.253 1193.83 220.531H1190.32C1190.32 220.01 1190.44 219.528 1190.67 219.083C1190.9 218.632 1191.24 218.24 1191.67 217.906C1192.1 217.573 1192.62 217.316 1193.23 217.135C1193.84 216.948 1194.52 216.854 1195.27 216.854C1196.17 216.854 1196.97 217.003 1197.67 217.302C1198.37 217.601 1198.93 218.049 1199.34 218.646C1199.75 219.236 1199.96 219.979 1199.96 220.875V225.49C1199.96 226.226 1200 226.785 1200.08 227.167C1200.17 227.542 1200.28 227.872 1200.44 228.156V228.333H1196.92C1196.75 227.986 1196.62 227.562 1196.54 227.062C1196.47 226.556 1196.43 226.035 1196.43 225.5ZM1196.85 221.448L1196.87 223.323H1195.32C1195 223.323 1194.72 223.368 1194.49 223.458C1194.27 223.549 1194.09 223.674 1193.95 223.833C1193.82 223.986 1193.72 224.16 1193.66 224.354C1193.6 224.549 1193.57 224.753 1193.57 224.969C1193.57 225.177 1193.62 225.365 1193.72 225.531C1193.82 225.691 1193.96 225.816 1194.14 225.906C1194.31 225.997 1194.5 226.042 1194.72 226.042C1195.11 226.042 1195.44 225.969 1195.71 225.823C1195.99 225.67 1196.2 225.486 1196.34 225.271C1196.49 225.056 1196.56 224.854 1196.56 224.667L1197.33 226.104C1197.19 226.382 1197.03 226.663 1196.85 226.948C1196.68 227.233 1196.46 227.497 1196.2 227.74C1195.94 227.976 1195.62 228.17 1195.25 228.323C1194.87 228.469 1194.42 228.542 1193.89 228.542C1193.19 228.542 1192.55 228.399 1191.97 228.115C1191.39 227.83 1190.93 227.434 1190.58 226.927C1190.24 226.413 1190.06 225.823 1190.06 225.156C1190.06 224.573 1190.17 224.052 1190.37 223.594C1190.59 223.135 1190.91 222.747 1191.34 222.427C1191.77 222.108 1192.32 221.865 1192.99 221.698C1193.66 221.531 1194.44 221.448 1195.34 221.448H1196.85ZM1207.81 225.167C1207.81 224.972 1207.75 224.806 1207.61 224.667C1207.49 224.521 1207.27 224.389 1206.95 224.271C1206.63 224.146 1206.18 224.021 1205.6 223.896C1205.06 223.778 1204.54 223.622 1204.05 223.427C1203.57 223.233 1203.15 222.997 1202.79 222.719C1202.43 222.441 1202.15 222.111 1201.94 221.729C1201.74 221.347 1201.64 220.91 1201.64 220.417C1201.64 219.937 1201.74 219.486 1201.94 219.062C1202.15 218.632 1202.45 218.253 1202.84 217.927C1203.25 217.594 1203.74 217.333 1204.31 217.146C1204.89 216.951 1205.55 216.854 1206.28 216.854C1207.3 216.854 1208.17 217.01 1208.91 217.323C1209.64 217.628 1210.21 218.059 1210.6 218.615C1211.01 219.163 1211.21 219.799 1211.21 220.521H1207.7C1207.7 220.236 1207.65 219.993 1207.55 219.792C1207.46 219.59 1207.31 219.437 1207.1 219.333C1206.9 219.222 1206.62 219.167 1206.27 219.167C1206.03 219.167 1205.81 219.212 1205.6 219.302C1205.41 219.392 1205.25 219.517 1205.14 219.677C1205.02 219.837 1204.96 220.024 1204.96 220.24C1204.96 220.392 1204.99 220.531 1205.06 220.656C1205.14 220.774 1205.25 220.885 1205.41 220.99C1205.56 221.087 1205.75 221.177 1205.99 221.26C1206.23 221.337 1206.51 221.406 1206.84 221.469C1207.6 221.608 1208.31 221.806 1208.97 222.062C1209.63 222.319 1210.16 222.684 1210.57 223.156C1210.99 223.628 1211.2 224.264 1211.2 225.062C1211.2 225.562 1211.08 226.024 1210.85 226.448C1210.63 226.865 1210.3 227.233 1209.86 227.552C1209.43 227.865 1208.92 228.108 1208.31 228.281C1207.71 228.455 1207.03 228.542 1206.27 228.542C1205.19 228.542 1204.28 228.351 1203.54 227.969C1202.8 227.58 1202.24 227.094 1201.85 226.51C1201.48 225.92 1201.29 225.323 1201.29 224.719H1204.56C1204.58 225.066 1204.66 225.351 1204.81 225.573C1204.97 225.795 1205.18 225.958 1205.45 226.062C1205.71 226.167 1206.02 226.219 1206.36 226.219C1206.68 226.219 1206.95 226.174 1207.16 226.083C1207.37 225.993 1207.53 225.872 1207.65 225.719C1207.76 225.559 1207.81 225.375 1207.81 225.167ZM1218.3 228.542C1217.39 228.542 1216.57 228.399 1215.84 228.115C1215.12 227.823 1214.51 227.424 1214.01 226.917C1213.52 226.41 1213.14 225.826 1212.88 225.167C1212.62 224.507 1212.49 223.809 1212.49 223.073V222.677C1212.49 221.851 1212.6 221.087 1212.83 220.385C1213.06 219.677 1213.4 219.059 1213.85 218.531C1214.31 218.003 1214.87 217.594 1215.55 217.302C1216.23 217.003 1217.02 216.854 1217.93 216.854C1218.73 216.854 1219.44 216.983 1220.07 217.24C1220.7 217.497 1221.24 217.865 1221.68 218.344C1222.12 218.823 1222.46 219.403 1222.69 220.083C1222.92 220.764 1223.04 221.528 1223.04 222.375V223.802H1213.83V221.604H1219.61V221.333C1219.62 220.958 1219.56 220.639 1219.42 220.375C1219.28 220.111 1219.09 219.91 1218.83 219.771C1218.58 219.632 1218.26 219.562 1217.9 219.562C1217.51 219.562 1217.2 219.646 1216.95 219.812C1216.7 219.979 1216.51 220.208 1216.38 220.5C1216.24 220.785 1216.15 221.115 1216.09 221.49C1216.04 221.865 1216.01 222.26 1216.01 222.677V223.073C1216.01 223.49 1216.07 223.868 1216.18 224.208C1216.3 224.549 1216.46 224.84 1216.68 225.083C1216.9 225.319 1217.16 225.503 1217.47 225.635C1217.78 225.767 1218.14 225.833 1218.53 225.833C1219.01 225.833 1219.48 225.743 1219.95 225.562C1220.41 225.382 1220.81 225.083 1221.15 224.667L1222.74 226.562C1222.51 226.889 1222.18 227.205 1221.76 227.51C1221.34 227.816 1220.84 228.066 1220.26 228.26C1219.68 228.448 1219.02 228.542 1218.3 228.542Z" fill="white"/>
</svg>
